<svg width="25" height="24" viewBox="0 0 25 24" fill="none" xmlns="http://www.w3.org/2000/svg">
<path fill-rule="evenodd" clip-rule="evenodd" d="M10.8224 20.0036C10.8276 20.1265 10.8144 20.2464 10.7884 20.3677C10.7429 20.5809 10.655 20.8065 10.5305 21.015C10.1767 21.6075 9.57558 22.0029 8.80171 22.0029C6.97867 22.0029 6.26318 21.1101 5.36732 18.8743C4.7606 17.3601 4.47436 17.0029 3.79309 17.0029V15.0029C5.61613 15.0029 6.33162 15.8958 7.22748 18.1315C7.83421 19.6458 8.12044 20.0029 8.80171 20.0029C8.80171 19.7128 8.79773 19.4557 8.78935 19.1077C8.76972 18.2919 8.76746 18.1253 8.80311 17.9072C8.81736 17.4311 8.94049 17.0933 9.18738 16.7581C6.95172 16.2722 5.44385 15.2689 4.57841 13.6414L4.25422 12.8803C3.93839 11.9742 3.79309 10.9475 3.79309 9.76183C3.79309 8.39627 4.21016 7.17529 4.98917 6.15467C4.74616 5.18453 4.77944 3.99922 5.31602 2.6606L5.49135 2.2232L5.94086 2.07966C6.00104 2.06044 6.0742 2.04309 6.16015 2.02962C7.03543 1.89248 8.28091 2.21968 9.90917 3.26084C10.8691 3.03872 11.8798 2.92657 12.8976 2.92657C13.8069 2.92657 14.7114 3.0181 15.575 3.19854C17.1592 2.20821 18.3704 1.8976 19.2221 2.02979C19.3071 2.04298 19.3795 2.06001 19.4392 2.0789L19.8915 2.22209L20.0671 2.66216C20.5365 3.8389 20.617 4.92336 20.4463 5.87229C21.3418 6.945 21.8241 8.26378 21.8241 9.76183C21.8241 11.0248 21.7335 11.9744 21.4729 12.8983L21.1979 13.6517C20.4781 15.2774 18.8906 16.292 16.4424 16.7752C16.6969 17.127 16.8155 17.484 16.8155 18.0029V19.0029C16.8155 19.4875 16.8155 19.5025 16.8144 20.0029C16.8167 20.0389 16.8197 20.0565 16.8229 20.0674C16.8221 20.0677 16.8155 22.0029 16.8155 22.0029C15.9622 22.0029 15.3278 21.5875 15.0158 20.9323C14.854 20.5925 14.8056 20.2681 14.8121 19.9887V18.0029C14.8121 17.9191 14.8092 17.9142 14.6046 17.71C14.0579 17.1642 13.8103 16.7524 13.8103 16.0029V15.0983L14.712 15.0079C17.3958 14.7389 18.8555 13.9948 19.3395 12.9078L19.5657 12.2906C19.7456 11.6452 19.8207 10.8593 19.8207 9.76183C19.8207 8.59574 19.4129 7.63247 18.6416 6.86286L18.2177 6.43984L18.3907 5.86696C18.5445 5.35801 18.5809 4.75579 18.4184 4.0689C18.3913 4.07573 18.3633 4.08318 18.3341 4.09128C17.7977 4.24035 17.128 4.56021 16.3211 5.09869L15.953 5.34429L15.5234 5.23792C14.6923 5.0322 13.7992 4.92657 12.8976 4.92657C11.8949 4.92657 10.9038 5.05392 9.98821 5.3031L9.54139 5.4247L9.15915 5.16366C8.32452 4.59367 7.63115 4.25471 7.07516 4.09637C7.03545 4.08506 6.99765 4.07494 6.9617 4.06592C6.76773 4.86091 6.84445 5.51406 7.04091 6.00416L7.27647 6.59181L6.84523 7.05582C6.15806 7.7952 5.79654 8.69497 5.79654 9.76183C5.79654 10.7386 5.91108 11.548 6.12098 12.1576L6.38312 12.7771C7.03842 14.0046 8.43027 14.7431 10.9119 15.0086L11.8069 15.1044V16.0029C11.8069 16.7524 11.5594 17.1642 11.0126 17.71C10.8081 17.9142 10.8052 17.9191 10.8052 18.0029L10.7879 18.1878C10.7765 18.2484 10.7765 18.405 10.7922 19.0596C10.7995 19.3607 10.8036 19.599 10.8048 19.848C10.8168 19.8996 10.8186 19.9328 10.8224 20.0036Z" fill="#575757"/>
</svg>
