<svg width="25" height="24" viewBox="0 0 25 24" fill="none" xmlns="http://www.w3.org/2000/svg">
<path fill-rule="evenodd" clip-rule="evenodd" d="M4.87585 2H20.9034C22.0099 2 22.9069 2.89543 22.9069 4V20C22.9069 21.1046 22.0099 22 20.9034 22H4.87585C3.76938 22 2.87241 21.1046 2.87241 20V4C2.87241 2.89543 3.76938 2 4.87585 2ZM4.87585 4V20H20.9034V4H4.87585ZM13.8914 9C13.3728 9 12.8248 9.15826 12.3408 9.45215L11.8879 9H10.8862V16H12.8896V12C12.8896 11.4243 13.4847 11 13.8914 11H14.8931C15.2998 11 15.8948 11.4243 15.8948 12V16H17.8983V12C17.8983 10.1472 16.2895 9 14.8931 9H13.8914ZM8.88275 8C9.43598 8 9.88447 7.55228 9.88447 7C9.88447 6.44772 9.43598 6 8.88275 6C8.32952 6 7.88103 6.44772 7.88103 7C7.88103 7.55228 8.32952 8 8.88275 8ZM7.88103 9V16H9.88447V9H7.88103Z" fill="#575757"/>
</svg>
