<svg width="25" height="24" viewBox="0 0 25 24" fill="none" xmlns="http://www.w3.org/2000/svg">
<path fill-rule="evenodd" clip-rule="evenodd" d="M22.1059 4.50827L23.5231 4.67349L22.886 5.948C22.5754 6.56953 22.2645 7.19105 21.9531 7.81258C21.9163 7.94422 21.8514 8.05962 21.7555 8.20987C21.7153 8.27265 21.5784 8.47236 21.572 8.48194C21.5358 8.53608 21.5091 8.57878 21.4898 8.61299V11.0015C21.4898 17.1135 15.5646 20.9974 9.96905 20.9974C8.82405 20.9974 7.95411 20.9427 6.95798 20.7257C5.31865 20.3685 4.09867 19.6587 3.54041 18.418L2.96566 17.1407L4.36245 17.0124C5.62604 16.8964 6.72161 16.6561 7.56296 16.3343C5.25316 15.9635 3.95876 14.9508 3.95876 13.0489V12.0489H4.96049C5.18058 12.0489 5.37904 12.0311 5.55645 11.9983C3.82293 10.9636 2.95465 9.30379 2.95465 7.00152C2.95446 6.9034 2.95446 6.90339 2.95387 6.79847C2.94736 5.63803 3.0098 5.01797 3.32803 4.22659C3.53197 3.71941 3.82677 3.24988 4.22352 2.81967L4.97943 2L5.71435 2.83847C8.13629 5.60161 10.5304 7.27795 12.9749 7.48072C12.9853 4.93105 14.9155 3.00152 17.4827 3.00152C18.6796 3.00152 19.7652 3.45501 20.6183 4.27273C21.0852 4.36851 21.5812 4.44709 22.1059 4.50827ZM19.8912 6.16202L19.5842 6.0926L19.3721 5.86028C18.8593 5.29855 18.2156 5.00152 17.4827 5.00152C16.0173 5.00152 14.9782 6.04391 14.9782 7.50152C14.9782 7.73974 14.9721 7.88942 14.9424 8.08615C14.8238 8.87116 14.3827 9.50152 13.4756 9.50152C10.4724 9.50152 7.76307 7.89542 5.12105 5.15228C4.98485 5.56561 4.95282 5.99047 4.95729 6.78727C4.95789 6.89384 4.95789 6.89384 4.9581 7.00152C4.9581 9.04953 5.78924 10.1698 7.75717 10.7942L8.45545 11.0158V11.7472C8.45545 12.6342 7.61367 13.4691 6.38201 13.8431C6.94662 14.2708 8.10129 14.5015 9.9694 14.5015H10.9711V15.5015C10.9711 16.9343 9.32201 18.0561 6.83086 18.6419C7.64329 18.8903 8.72503 18.9974 9.96905 18.9974C14.5915 18.9974 19.4864 15.7888 19.4864 11.0015V8.50152C19.4864 8.20774 19.5717 7.95273 19.7134 7.68759C19.7689 7.58393 19.8299 7.48509 19.9051 7.37237C19.9193 7.35115 19.9719 7.27426 20.0137 7.21279L20.093 7.05429C20.2218 6.79745 20.3503 6.54061 20.4788 6.28377C20.2791 6.24599 20.0832 6.20541 19.8912 6.16202Z" fill="#575757"/>
</svg>
